<?xml version="1.0" encoding="utf-8"?>
<!-- Generator: Adobe Illustrator 17.1.0, SVG Export Plug-In . SVG Version: 6.00 Build 0)  -->
<!DOCTYPE svg PUBLIC "-//W3C//DTD SVG 1.1//EN" "http://www.w3.org/Graphics/SVG/1.1/DTD/svg11.dtd">
<svg version="1.1" id="Layer_1" xmlns="http://www.w3.org/2000/svg" xmlns:xlink="http://www.w3.org/1999/xlink" x="0px" y="0px"
	 viewBox="0 0 700 700" enable-background="new 0 0 700 700" xml:space="preserve">
<g>
	<g>
		<path fill="#FFFFFF" d="M350.009,692.012C161.425,692.012,8,538.587,8,350.001S161.425,7.988,350.009,7.988
			C538.583,7.988,692,161.415,692,350.001S538.583,692.012,350.009,692.012z M350.009,60.398
			c-159.686,0-289.599,129.915-289.599,289.603c0,159.686,129.913,289.604,289.599,289.604
			c159.676,0,289.582-129.918,289.582-289.604C639.59,190.313,509.685,60.398,350.009,60.398z"/>
	</g>
	<g>
		<path fill="#FFFFFF" d="M116.082,310.836H422.2v14.692h161.716c0,0-90.1,53.934-164.099,71.237
			c-10.118,4.771-20.819,11.78-26.335,19.187c-4.545,6.113-4.27,18.2,0.767,28.896c5.619,11.938,13.218,12.446,27.04,22.826
			l36.727,63.339l1.786,29.25H421.6c0,0-36.996-38.197-79.354-38.796c-42.375-0.609-80.555,38.796-80.555,38.796h-42.967V537.59
			c0,0,37.539-54.234,47.742-75.171c12.014-24.753,7.158-40,5.964-48.356c-1.198-8.357-9.852-27.453-25.623-40.22
			c-18.796-15.217-27.162-21.628-62.665-31.333c-34.929-9.541-60.855-7.144-60.855-7.144l-7.206-6.034V310.836z"/>
	</g>
	<g>
		<polygon fill="#FFFFFF" points="187.92,163.972 205.832,200.242 245.856,206.057 216.895,234.294 223.73,274.149 187.92,255.329 
			152.126,274.149 158.975,234.294 130,206.057 170.033,200.242 		"/>
	</g>
	<g>
		<polygon fill="#FFFFFF" points="562.07,189.63 365.149,189.625 365.149,163.599 291.517,138.263 291.517,286.099 365.149,286.099 
			365.149,234.752 562.087,234.742 		"/>
	</g>
</g>
</svg>
